HIERARCHY
ROOT Hips
{
	OFFSET -0.179506 -22.333345 2.821913
	CHANNELS 6 Xposition Yposition Zposition Zrotation Yrotation Xrotation 
	JOINT LeftUpLeg
	{
		OFFSET 6.951974 -9.140623 -0.681533
		CHANNELS 3 Zrotation Yrotation Xrotation
		JOINT LeftLeg
		{
			OFFSET 3.427654 -37.519855 -0.449580
			CHANNELS 3 Zrotation Yrotation Xrotation
			JOINT LeftFoot
			{
				OFFSET -1.359570 -39.796059 -4.369333
				CHANNELS 3 Zrotation Yrotation Xrotation
				JOINT LeftToe
				{
					OFFSET 2.635814 -5.579078 11.928840
					CHANNELS 3 Zrotation Yrotation Xrotation
					End Site
					{
						OFFSET 0.000000 0.000000 0.000000
					}
				}
			}
		}
	}
	JOINT RightUpLeg
	{
		OFFSET -6.767048 -9.052170 -0.431982
		CHANNELS 3 Zrotation Yrotation Xrotation
		JOINT RightLeg
		{
			OFFSET -3.829005 -38.256897 -0.885003
			CHANNELS 3 Zrotation Yrotation Xrotation
			JOINT RightFoot
			{
				OFFSET 1.577377 -39.841461 -4.231180
				CHANNELS 3 Zrotation Yrotation Xrotation
				JOINT RightToe
				{
					OFFSET -2.537174 -4.814398 12.334795
					CHANNELS 3 Zrotation Yrotation Xrotation
					End Site
					{
						OFFSET 0.000000 0.000000 0.000000
					}
				}
			}
		}
	}
	JOINT Spine
	{
		OFFSET -0.253288 10.896323 -2.669631
		CHANNELS 3 Zrotation Yrotation Xrotation
		JOINT Spine1
		{
			OFFSET 0.548704 13.518043 0.109247
			CHANNELS 3 Zrotation Yrotation Xrotation
			JOINT Spine2
			{
				OFFSET 0.145701 5.292222 2.542457
				CHANNELS 3 Zrotation Yrotation Xrotation
				JOINT Neck
				{
					OFFSET -0.277840 21.387037 -4.285703
					CHANNELS 3 Zrotation Yrotation Xrotation
					JOINT Head
					{
						OFFSET 0.515184 6.496960 5.134897
						CHANNELS 3 Zrotation Yrotation Xrotation
						End Site
						{
							OFFSET 0.000000 0.000000 0.000000
						}
					}
				}
				JOINT LeftShoulder
				{
					OFFSET 7.884473 12.174932 -3.408961
					CHANNELS 3 Zrotation Yrotation Xrotation
					JOINT LeftArm
					{
						OFFSET 9.097692 3.046888 -0.886815
						CHANNELS 3 Zrotation Yrotation Xrotation
						JOINT LeftForeArm
						{
							OFFSET 25.961220 -1.277207 -2.745643
							CHANNELS 3 Zrotation Yrotation Xrotation
							JOINT LeftHand
							{
								OFFSET 24.923361 0.898606 -0.117091
								CHANNELS 3 Zrotation Yrotation Xrotation
								End Site
								{
									OFFSET 0.000000 0.000000 0.000000
								}
							}
						}
					}
				}
				JOINT RightShoulder
				{
					OFFSET -8.175920 11.883285 -3.861528
					CHANNELS 3 Zrotation Yrotation Xrotation
					JOINT RightArm
					{
						OFFSET -9.601238 3.255117 -0.914307
						CHANNELS 3 Zrotation Yrotation Xrotation
						JOINT RightForeArm
						{
							OFFSET -25.374195 -1.332924 -2.140099
							CHANNELS 3 Zrotation Yrotation Xrotation
							JOINT RightHand
							{
								OFFSET -25.529810 0.777228 -0.555919
								CHANNELS 3 Zrotation Yrotation Xrotation
								End Site
								{
									OFFSET 0.000000 0.000000 0.000000
								}
							}
						}
					}
				}
			}
		}
	}
}
MOTION
Frames: 17
Frame Time: 0.033333
41.775768 32.551598 52.399956 -45.096213 -2.782242 98.717316 13.771993 35.726845 -89.197851 -21.024666 35.732680 116.054747 8.525050 -27.439311 -14.025716 nan nan nan -10.484404 -37.266562 -88.866964 -3.827164 -27.086235 127.167475 -4.349818 16.789332 -25.905133 nan nan nan 3.791169 4.921491 83.773971 1.733312 -4.666989 -11.506343 3.544694 -3.025438 -2.187673 -8.106656 3.096805 -11.149002 12.793678 -8.783697 -8.507353 -0.709373 -44.286592 -14.614519 -8.200129 -25.648610 -13.929897 -1.894743 -21.648230 -1.826321 -17.881683 -5.982397 -7.723357 5.746190 39.384744 -6.767604 15.793330 33.081224 -24.063650 -9.070157 26.939886 -12.074363 25.418786 5.015907 -8.477533 
41.821156 32.587109 52.388943 -44.980653 -3.005013 98.839558 13.595184 35.458078 -89.363840 -21.032528 35.865878 115.927095 8.481653 -27.391366 -13.928877 nan nan nan -10.523179 -37.301471 -89.214398 -3.798796 -27.001157 127.113986 -4.224910 16.351839 -25.890796 nan nan nan 3.796089 4.792842 83.530058 1.784551 -4.735821 -11.694582 3.473129 -3.059802 -1.996017 -8.132119 2.959960 -11.615951 12.784392 -8.749390 -8.389071 -0.754119 -44.234936 -14.414716 -8.467448 -25.686046 -13.701638 -1.403085 -22.064968 -2.343883 -15.339970 -6.483751 -7.674560 5.665811 39.317436 -6.964625 15.943831 33.223139 -23.792565 -9.039397 26.673774 -11.968228 24.813803 4.803373 -7.528480 
41.821575 32.653324 52.433842 -44.936660 -3.073848 98.835504 13.560526 35.372056 -89.358927 -21.079127 35.812094 115.822164 8.240110 -27.419561 -13.875510 nan nan nan -10.682710 -37.135114 -89.119924 -3.879709 -26.890224 127.054919 -3.953856 16.306771 -26.235289 nan nan nan 3.748550 4.751638 83.524683 1.876740 -4.769176 -11.786266 3.442345 -2.993408 -2.040968 -8.048554 3.113064 -12.028791 12.696106 -8.931818 -8.189354 -0.749075 -44.270854 -14.397160 -8.797655 -25.603771 -13.405513 -0.969358 -22.232684 -2.760827 -14.192345 -6.650675 -7.622238 5.722441 39.348713 -7.214410 16.123870 33.359518 -23.528088 -9.211711 26.352625 -11.814417 25.021847 4.170732 -6.891081 
41.883415 32.687965 52.415718 -44.851251 -3.319922 98.993146 13.456276 35.086478 -89.481984 -20.882664 35.934835 115.804798 8.254084 -27.294688 -14.025867 nan nan nan -10.926606 -37.086721 -89.337795 -3.844633 -26.808631 126.991511 -3.990007 16.464927 -26.451798 nan nan nan 3.741266 4.626555 83.114325 1.939281 -4.920392 -11.713864 3.343739 -3.034807 -2.105757 -7.923066 3.301139 -12.269138 12.598150 -9.024200 -8.120577 -0.998538 -44.279152 -14.174426 -8.890707 -25.645952 -13.412039 -0.830764 -22.079784 -2.890547 -15.146019 -6.885129 -7.882513 5.963902 39.282333 -6.973763 15.856618 33.576202 -23.571495 -9.133774 25.974909 -11.358387 25.667157 3.771635 -6.961526 
41.901455 32.743462 52.451847 -44.886040 -3.328623 99.004510 13.430168 35.021456 -89.480851 -20.835821 35.830723 115.810532 8.337543 -27.207986 -14.223944 nan nan nan -11.086999 -36.774958 -89.177831 -3.965391 -26.651608 126.913544 -4.046247 16.736500 -26.855045 nan nan nan 3.657710 4.509899 83.150529 1.874594 -4.852807 -11.897366 3.312574 -3.016003 -2.167429 -7.794181 3.393351 -12.653495 12.477351 -9.089945 -8.056259 -1.183283 -44.211189 -14.096612 -8.974337 -25.700164 -13.389854 -0.782930 -21.874415 -2.768025 -16.016333 -7.105718 -8.149673 5.890287 39.256952 -6.958436 15.836484 33.709080 -23.509786 -8.861267 25.633575 -11.102710 25.831973 4.096348 -7.627563 
41.932327 32.803768 52.489399 -44.958144 -3.300914 99.061589 13.352238 34.983982 -89.542084 -20.881610 35.704778 115.761507 8.553093 -27.080689 -14.524677 nan nan nan -11.205801 -36.412218 -89.010352 -3.965809 -26.514877 126.789708 -3.778699 17.125018 -27.469948 nan nan nan 3.626760 4.471841 83.146188 1.835993 -4.762822 -12.082886 3.282394 -3.023635 -2.215140 -7.682225 3.492252 -13.047492 12.333230 -9.186804 -7.861522 -1.387189 -44.237042 -14.041953 -9.022575 -25.761566 -13.385421 -0.749496 -21.535443 -2.645541 -16.102634 -6.793689 -7.866196 5.854513 39.280074 -6.982567 15.849711 33.826721 -23.532491 -8.812483 25.195270 -10.770127 25.963649 4.085225 -7.253558 
42.000957 32.838428 52.460789 -44.883761 -3.499769 99.202126 13.164062 34.665136 -89.652535 -20.768142 35.754260 115.753688 8.806498 -26.859887 -14.991685 nan nan nan -11.644868 -36.334104 -88.913052 -3.835767 -26.467743 126.714484 -3.248116 17.723449 -28.117399 nan nan nan 3.672841 4.431743 82.765958 1.947061 -4.893379 -11.978652 3.234527 -3.093897 -2.373169 -7.539477 3.638525 -13.138550 12.126080 -9.292281 -7.757468 -1.797443 -44.430425 -13.720132 -8.980828 -25.729260 -13.311698 -0.600621 -21.233579 -2.702273 -16.223298 -6.418910 -7.632324 6.059865 39.380332 -6.780388 15.685084 33.915838 -23.540687 -8.706995 24.809908 -10.637891 26.107055 4.051859 -7.312545 
42.050655 32.868908 52.463017 -44.844877 -3.560546 99.264758 13.140614 34.431471 -89.654092 -20.553160 35.705710 115.848477 8.923796 -26.739686 -15.410948 nan nan nan -11.982566 -36.125603 -88.653845 -3.725731 -26.396047 126.498109 -3.033159 18.196669 -28.907061 nan nan nan 3.746827 4.254624 82.650379 1.948532 -4.923264 -12.064536 3.112283 -3.142813 -2.538450 -7.359898 3.850142 -13.361448 11.883028 -9.557088 -7.574966 -2.042704 -44.419527 -13.483706 -9.174655 -25.797049 -13.134288 -0.426379 -21.143989 -2.571921 -16.928190 -6.834218 -8.051423 6.131188 39.308629 -6.764397 15.799423 34.193749 -23.403860 -8.498196 24.353756 -10.667509 25.898314 4.256396 -8.200651 
42.077782 32.919289 52.455490 -44.864799 -3.615530 99.411033 13.061818 34.317358 -89.758469 -20.339612 35.587134 115.909118 8.945145 -26.773779 -15.712305 nan nan nan -12.062370 -35.841343 -88.638833 -3.650642 -26.206600 126.213345 -3.324248 18.569239 -29.899987 nan nan nan 3.779337 4.119117 82.583679 1.880552 -4.931478 -12.383980 3.001381 -3.165526 -2.639440 -7.208315 4.000917 -13.583002 11.726438 -9.722625 -7.505638 -2.101109 -44.390325 -13.402988 -9.439469 -25.838603 -13.125594 -0.488843 -20.892251 -2.423797 -18.475121 -7.231348 -8.224643 6.106450 39.145060 -6.757466 16.119108 34.407789 -23.363440 -8.326867 23.897354 -10.378051 26.176267 4.369732 -8.270884 
42.159618 32.983528 52.465664 -44.850158 -3.671608 99.617577 12.867368 34.077464 -90.002369 -20.110032 35.473155 115.900668 8.841449 -26.737447 -15.900567 nan nan nan -11.950077 -35.563431 -88.735731 -3.758946 -26.035613 125.994579 -3.798272 18.567117 -30.851934 nan nan nan 3.878021 3.848880 82.548599 1.759658 -4.990016 -13.065960 2.873548 -3.241986 -2.415551 -7.208543 4.106937 -14.057691 11.534337 -9.846803 -7.242151 -2.161049 -44.328818 -13.388458 -9.660289 -25.917444 -13.230434 -0.547424 -20.426370 -2.040710 -19.565547 -7.115733 -8.062086 5.992258 39.024854 -6.723226 16.334621 34.687170 -23.385044 -7.955619 23.615768 -9.872060 25.636131 4.403379 -9.025553 
42.245857 33.047092 52.492298 -44.793047 -3.749319 99.810505 12.631465 33.817120 -90.212412 -20.027515 35.345287 115.794605 8.543651 -26.730269 -16.078020 nan nan nan -11.979215 -35.218080 -88.568590 -4.270430 -26.010363 125.935801 -4.276587 18.249890 -32.001218 nan nan nan 3.957252 3.567495 82.517568 1.661308 -4.993141 -13.740164 2.785090 -3.379890 -2.130965 -7.160885 4.390825 -14.594956 11.229280 -10.131796 -7.052009 -2.266261 -44.081209 -13.227312 -9.935687 -26.109621 -13.082339 -0.456406 -20.274539 -1.559375 -19.376065 -7.293306 -8.643613 5.794109 38.740138 -6.815616 16.415898 35.174395 -23.179288 -6.903252 23.581677 -9.410817 22.707250 4.846637 -11.911935 
42.301991 33.101353 52.534561 -44.661669 -3.911792 99.874341 12.519825 33.487163 -90.136613 -20.110529 35.283051 115.612286 8.966828 -26.741358 -16.613451 nan nan nan -11.942338 -35.097278 -88.559121 -4.171975 -25.762945 125.639413 -4.683295 18.081966 -32.769645 nan nan nan 3.915966 3.389165 82.338408 1.680953 -5.021963 -13.812122 2.764027 -3.421054 -2.083786 -7.188908 4.254332 -15.226680 11.079308 -10.083477 -6.890962 -2.212515 -44.101129 -13.223217 -10.245200 -26.056614 -13.097746 -0.191655 -20.232956 -1.939591 -21.323828 -7.480489 -8.278403 5.550620 38.722798 -7.349324 16.953519 35.250708 -22.735717 -7.500456 22.910860 -8.121665 27.739205 4.014716 -8.451028 
42.331142 33.146557 52.566402 -44.551746 -4.082360 99.882552 12.380275 33.288071 -90.088090 -20.155255 35.244712 115.480139 9.321331 -26.755810 -16.916458 nan nan nan -11.870872 -35.065674 -88.593324 -4.017840 -25.600233 125.510866 -5.010759 17.878273 -33.259798 nan nan nan 3.841395 3.359074 82.110627 1.763310 -5.054250 -13.632601 2.828247 -3.428167 -2.235461 -7.160062 4.179711 -15.531495 10.977156 -9.986803 -7.013133 -2.388776 -44.235427 -13.048742 -10.428746 -25.870724 -12.912963 0.109272 -20.453842 -2.029607 -22.487315 -7.542894 -8.208530 5.582363 38.900737 -7.471276 17.206995 35.318806 -22.692148 -8.046381 22.291768 -7.860961 30.009552 3.090412 -6.909655 
42.356800 33.193943 52.573956 -44.511984 -4.158805 99.869582 12.244993 33.268276 -90.173363 -20.150992 35.226805 115.453894 9.170858 -26.659308 -16.809049 nan nan nan -11.786817 -34.998956 -88.660884 -3.973613 -25.553195 125.439984 -5.282598 17.535349 -33.540949 nan nan nan 3.841028 3.285630 81.974235 1.745809 -5.007821 -13.690112 2.837810 -3.482925 -2.182315 -7.073376 4.232277 -15.939016 10.730092 -10.097126 -7.183696 -2.407951 -44.037061 -13.018980 -10.836096 -26.093929 -12.388472 0.495887 -20.464182 -1.965680 -20.762935 -7.450408 -8.539610 5.381887 38.643645 -7.697696 17.022326 35.554281 -22.262767 -7.214416 22.214693 -7.105373 27.355087 3.189395 -7.070270 
42.401184 33.237438 52.585926 -44.450360 -4.272979 99.911174 12.088094 33.193233 -90.285542 -20.142880 35.304728 115.356714 9.511320 -26.407752 -16.961726 nan nan nan -11.655934 -34.973724 -88.818645 -4.004004 -25.518423 125.329146 -5.600470 16.936056 -33.850005 nan nan nan 3.832910 3.153818 81.925316 1.730440 -5.002650 -14.046916 2.797929 -3.523304 -2.029695 -7.170709 4.204595 -16.280039 10.702097 -10.226103 -7.253352 -2.478070 -43.993076 -12.983427 -11.005966 -26.282659 -12.143993 0.386964 -20.027068 -1.595706 -19.588302 -7.190891 -9.066384 5.348640 38.539844 -7.683495 17.005777 35.825030 -21.860422 -7.168595 22.213881 -6.204440 25.585427 2.238742 -6.800896 
42.456169 33.273380 52.587963 -44.421950 -4.418197 100.046606 11.957559 33.107431 -90.433090 -19.903564 35.324124 115.382648 9.777239 -26.465429 -17.112892 nan nan nan -11.670539 -34.942286 -88.987639 -4.281722 -25.405823 125.305844 -5.893944 16.808291 -34.165793 nan nan nan 3.888971 2.989925 81.893790 1.641723 -5.041795 -14.605967 2.710339 -3.566053 -1.977910 -7.170844 4.220292 -16.420683 10.552339 -10.366836 -7.192870 -2.839411 -44.081856 -12.625709 -10.855439 -26.486587 -12.466330 -0.110115 -19.521151 -1.028281 -22.392048 -8.018140 -8.964149 5.522260 38.552832 -7.312982 16.854487 35.927307 -21.795249 -7.263761 21.957719 -5.773862 24.831244 2.095276 -6.461564 
42.483860 33.317486 52.595654 -44.409641 -4.494113 100.143649 11.909801 33.130332 -90.517471 -19.827635 35.347638 115.356768 9.821244 -26.520141 -17.164669 nan nan nan -11.721933 -34.904707 -89.146025 -4.458187 -25.345155 125.306062 -5.930173 16.826174 -34.203669 nan nan nan 3.857246 2.848620 81.996758 1.542900 -4.952877 -15.375036 2.595862 -3.510721 -1.812126 -7.058561 4.170692 -16.642471 10.350271 -10.420110 -7.054719 -2.798265 -43.893895 -12.516400 -11.461277 -26.962705 -12.231621 0.324947 -19.303362 -0.641940 -21.629819 -8.216252 -8.741579 5.541680 38.394018 -7.294429 16.815352 35.973786 -21.855036 -7.011438 21.367590 -5.441491 24.432333 3.154821 -6.684532 
